<?xml version="1.0" standalone="no"?>
<!DOCTYPE svg PUBLIC "-//W3C//DTD SVG 20010904//EN"
 "http://www.w3.org/TR/2001/REC-SVG-20010904/DTD/svg10.dtd">
<svg version="1.0" xmlns="http://www.w3.org/2000/svg"
 width="512.000000pt" height="512.000000pt" viewBox="0 0 512.000000 512.000000"
 preserveAspectRatio="xMidYMid meet">
<metadata>
Created by potrace 1.11, written by Peter Selinger 2001-2013
</metadata>
<g transform="translate(0.000000,512.000000) scale(0.100000,-0.100000)"
fill="#000000" stroke="none">
<path d="M1265 5002 c-33 -8 -62 -18 -65 -21 -3 -3 -21 -17 -40 -30 -49 -33
-91 -102 -106 -178 -12 -56 -12 -74 1 -130 16 -68 60 -143 99 -169 13 -8 38
-40 55 -72 17 -31 36 -64 41 -72 34 -53 100 -173 100 -181 0 -5 5 -9 10 -9 6
0 10 -5 10 -10 0 -6 11 -27 23 -48 13 -20 35 -57 49 -82 68 -121 152 -268 170
-298 15 -25 17 -33 6 -36 -7 -2 -67 -16 -133 -31 -256 -59 -396 -124 -595
-276 -122 -93 -199 -173 -285 -294 -27 -38 -52 -72 -55 -75 -11 -10 -31 -47
-76 -140 -46 -94 -57 -119 -68 -152 -3 -9 -24 -27 -48 -39 -100 -51 -178 -124
-241 -226 -29 -46 -77 -221 -77 -280 0 -61 47 -239 76 -285 62 -100 151 -184
242 -228 29 -15 39 -29 67 -101 31 -80 82 -188 94 -199 4 -3 12 -16 20 -30 34
-63 133 -189 206 -264 146 -151 328 -275 511 -349 53 -21 226 -71 288 -83 12
-2 46 -9 76 -16 42 -10 270 -13 980 -13 l925 0 135 32 c172 41 241 63 343 111
69 32 219 122 237 142 3 3 23 19 45 35 194 144 373 382 458 608 19 51 37 100
41 110 3 9 14 21 23 25 73 30 202 162 243 249 23 50 60 208 60 259 0 57 -40
204 -71 265 -17 30 -49 78 -73 105 -44 49 -145 126 -184 138 -11 4 -23 18 -26
31 -7 27 -86 196 -113 240 -17 27 -81 118 -136 190 -50 67 -196 201 -296 272
-98 70 -291 173 -323 173 -8 0 -18 4 -24 9 -9 9 -162 50 -269 72 -77 16 -74
16 -112 17 l-33 2 27 48 c14 26 51 90 81 142 30 52 65 113 78 135 12 22 64
112 116 200 51 88 102 176 112 196 11 20 43 62 71 93 60 64 79 100 95 176 10
46 9 66 -5 120 -31 125 -102 195 -225 225 -59 13 -72 13 -137 -1 -119 -26
-196 -100 -223 -214 -7 -30 -20 -67 -29 -82 -16 -28 -172 -287 -194 -323 -7
-11 -26 -42 -43 -70 -16 -27 -33 -57 -37 -65 -4 -8 -32 -55 -62 -104 -30 -49
-55 -93 -55 -97 0 -5 -4 -9 -10 -9 -5 0 -10 -4 -10 -10 0 -9 -88 -158 -100
-170 -3 -3 -14 -21 -24 -40 -11 -19 -35 -59 -53 -87 l-34 -53 -249 0 -249 0
-18 28 c-10 15 -23 36 -30 47 -7 11 -38 63 -70 115 -32 52 -60 99 -62 105 -2
5 -7 12 -10 15 -3 3 -12 16 -20 29 -7 13 -107 180 -221 370 -154 257 -210 360
-220 401 -7 30 -23 69 -36 87 -13 17 -24 35 -24 40 -1 19 -100 73 -160 87 -77
18 -78 18 -155 -2z"/>
</g>
</svg>
